<svg width="16" height="25" viewBox="0 0 16 25" fill="none" xmlns="http://www.w3.org/2000/svg">
<path d="M7.77639 12.7544C11.1505 12.7544 13.9622 10.0806 13.9622 6.87211C13.9622 3.6636 11.1505 0.989838 7.77639 0.989838C4.40228 0.989838 1.59053 3.6636 1.59053 6.87211C1.59053 10.0806 4.40228 12.7544 7.77639 12.7544ZM7.77639 3.93098C9.46344 3.93098 10.8693 5.26786 10.8693 6.87211C10.8693 8.47636 9.46344 9.81323 7.77639 9.81323C6.08933 9.81323 4.68346 8.47636 4.68346 6.87211C4.68346 5.26786 6.08933 3.93098 7.77639 3.93098ZM14.9464 13.5565C14.6652 12.8881 13.6811 12.3533 12.2752 13.2891C10.5881 14.626 7.77639 14.626 7.77639 14.626C7.77639 14.626 4.96463 14.626 3.27758 13.2891C2.01229 12.3533 1.02818 12.8881 0.606419 13.5565C0.0440689 14.7597 0.747005 15.2944 2.29347 16.2302C3.55876 17.0324 5.3864 17.2997 6.65168 17.4334L5.66757 18.3692C4.2617 19.7061 2.99641 20.9093 2.01229 21.8451C1.44994 22.3799 1.44994 23.182 2.01229 23.7167L2.15288 23.8504C2.71523 24.3852 3.55876 24.3852 4.12111 23.8504L7.77639 20.3746C9.18226 21.7114 10.4475 22.9146 11.4317 23.8504C11.994 24.3852 12.8375 24.3852 13.3999 23.8504L13.5405 23.7167C14.1028 23.182 14.1028 22.3799 13.5405 21.8451L9.8852 18.3692L8.90109 17.4334C10.0258 17.2997 11.8534 17.0324 13.2593 16.2302C14.9464 15.2944 15.6493 14.626 14.9464 13.5565Z" fill="white"/>
</svg>
