<svg width="30" height="18" viewBox="0 0 30 18" fill="none" xmlns="http://www.w3.org/2000/svg">
<path fill-rule="evenodd" clip-rule="evenodd" d="M29.3119 2.09374C29.5194 1.43074 29.3119 0.942596 28.3182 0.942596H25.037C24.2021 0.942596 23.8171 1.36395 23.6083 1.82903C23.6083 1.82903 21.9396 5.70988 19.5759 8.23074C18.8109 8.96174 18.4634 9.19367 18.0459 9.19367C17.8372 9.19367 17.5234 8.96174 17.5234 8.29753V2.09374C17.5234 1.29717 17.2934 0.942596 16.5985 0.942596H11.4386C10.9173 0.942596 10.6036 1.31174 10.6036 1.66267C10.6036 2.41674 11.7861 2.5916 11.9073 4.71417V9.32603C11.9073 10.3375 11.7161 10.5209 11.2986 10.5209C10.1861 10.5209 7.4799 6.62181 5.87369 2.16052C5.56244 1.29231 5.24745 0.942596 4.40872 0.942596H1.12504C0.187557 0.942596 6.10352e-05 1.36395 6.10352e-05 1.82903C6.10352e-05 2.65717 1.11254 6.77117 5.1812 12.2124C7.89365 15.9281 11.7123 17.9426 15.191 17.9426C17.2772 17.9426 17.5347 17.4957 17.5347 16.7247V13.916C17.5347 13.0211 17.7322 12.8426 18.3934 12.8426C18.8809 12.8426 19.7146 13.0757 21.6621 14.8668C23.8871 16.9906 24.2533 17.9426 25.5058 17.9426H28.787C29.7244 17.9426 30.1944 17.4957 29.9244 16.6117C29.6269 15.7326 28.5645 14.4564 27.1557 12.9422C26.3908 12.08 25.2433 11.1511 24.8945 10.686C24.4083 10.0898 24.547 9.82388 24.8945 9.29324C24.8945 9.29324 28.8945 3.91881 29.3107 2.09374H29.3119Z" fill="white"/>
</svg>
